P2
40 40
255
255
255
255
255
255
255
255
255
255
255
255
255
255
255
255
255
255
255
255
255
255
255
255
255
255
255
255
255
255
255
255
255
255
255
255
255
255
255
255
255
255
255
255
255
255
255
255
255
255
255
255
255
255
255
255
255
255
255
255
255
255
255
255
255
255
255
255
255
255
255
255
255
255
255
255
255
255
255
255
255
255
255
255
255
255
255
255
255
255
255
255
255
255
255
255
255
255
255
255
255
255
255
255
255
255
255
255
255
255
255
255
255
255
255
255
255
255
255
255
255
255
255
255
255
255
255
255
255
255
255
255
255
255
255
255
255
255
255
255
255
255
255
255
255
255
255
255
255
255
255
255
255
255
255
255
255
255
255
255
255
255
255
255
255
255
255
255
255
255
255
255
255
255
255
255
255
255
255
255
255
255
255
255
255
255
255
255
255
255
255
255
255
255
255
255
255
255
255
255
255
255
255
255
255
255
255
255
255
255
255
255
255
255
255
255
255
255
255
255
255
255
255
255
255
255
255
255
255
255
255
255
255
255
255
255
255
255
255
255
255
255
255
255
255
255
255
255
255
255
255
255
255
255
255
255
255
255
255
255
255
255
255
255
255
255
255
255
255
255
255
255
255
255
255
255
255
255
255
255
255
255
255
255
255
255
255
255
255
255
255
255
255
255
255
255
255
255
255
255
255
255
255
255
255
255
255
255
255
255
255
255
255
255
255
255
255
255
255
255
255
255
255
255
255
255
255
255
255
255
255
255
255
255
255
255
255
255
255
255
254
254
253
253
253
254
254
255
255
255
255
255
255
255
255
255
255
255
255
255
255
255
255
255
255
255
255
255
255
255
255
255
255
255
255
254
253
252
252
250
251
249
249
249
249
249
251
252
253
254
255
255
255
255
255
255
255
255
255
255
255
255
255
255
255
255
255
255
255
255
255
255
254
253
251
250
248
246
244
243
242
241
241
242
242
243
244
245
248
249
249
250
252
255
255
255
255
255
255
255
255
255
255
255
255
255
255
255
255
255
253
253
251
248
246
241
238
235
232
231
228
230
229
232
230
231
234
234
236
236
239
243
245
249
251
253
255
255
255
255
255
255
255
255
255
255
255
255
255
251
249
247
243
238
233
228
223
220
216
218
214
216
214
217
217
219
218
219
221
223
226
230
234
239
244
248
252
254
255
255
255
255
255
255
255
255
253
251
247
245
243
240
230
225
219
214
207
202
197
196
196
197
197
197
200
201
201
202
204
206
210
215
222
224
232
240
246
250
252
255
255
255
255
255
252
251
247
244
241
235
231
223
218
209
201
192
186
181
180
176
177
177
179
180
181
184
182
183
183
184
188
191
201
210
222
227
236
243
249
252
254
255
254
252
247
243
237
231
226
220
217
209
200
191
184
172
167
162
157
156
158
161
162
163
164
163
165
159
161
162
165
171
181
188
200
215
224
234
243
248
252
254
250
245
239
232
223
215
209
202
196
187
180
173
164
155
148
141
139
138
140
142
146
148
148
149
147
142
141
143
146
152
158
170
182
197
211
223
232
241
247
251
246
236
226
215
204
194
185
179
176
167
161
154
147
138
131
129
129
127
128
134
133
137
136
136
130
127
126
126
128
132
141
149
163
178
193
211
223
234
243
245
235
223
206
194
181
171
163
159
155
147
143
138
130
124
121
118
114
117
118
121
126
127
130
127
124
121
115
113
115
120
126
136
150
165
177
193
212
225
235
236
222
207
191
171
157
147
140
135
136
132
129
123
121
115
111
108
111
111
112
121
121
121
122
119
114
112
108
104
106
108
114
124
136
151
166
183
198
216
227
227
211
192
171
149
136
127
124
121
121
119
116
113
110
108
106
105
103
106
110
115
116
119
116
114
109
107
102
99
97
104
105
116
127
139
154
170
186
203
219
216
198
173
152
133
119
112
109
109
108
108
107
107
105
105
98
99
102
106
105
110
116
116
116
109
105
104
96
95
93
98
105
111
123
132
147
161
174
192
207
208
183
155
134
118
107
100
97
101
99
101
104
103
100
100
98
98
96
101
104
106
110
112
112
107
104
97
94
93
91
96
103
107
117
126
136
152
167
183
198
198
171
146
123
108
97
92
92
93
99
96
100
100
100
98
96
94
97
97
102
102
108
110
109
105
98
97
95
94
93
95
101
106
115
121
129
145
159
173
189
189
157
133
114
100
88
86
88
91
96
96
97
101
99
97
97
95
95
97
102
103
109
105
105
100
98
93
94
92
92
94
101
107
114
119
127
138
152
162
180
176
151
127
107
94
87
85
83
88
93
99
101
99
100
96
97
93
97
99
102
103
104
105
105
104
96
93
96
94
94
101
101
106
114
117
126
132
144
156
172
169
140
119
103
88
88
87
88
93
94
99
102
97
97
97
97
97
99
100
101
105
106
104
105
103
99
97
96
97
96
99
104
107
113
117
123
126
138
150
165
158
134
111
99
88
86
86
88
94
98
100
100
100
98
98
97
99
100
102
106
104
106
107
104
105
100
101
99
96
100
100
104
108
111
116
120
125
134
145
159
149
126
107
92
87
87
86
91
91
94
98
96
98
97
96
100
99
101
102
106
108
109
104
108
104
99
96
96
96
100
105
104
105
110
115
120
124
129
138
151
140
121
102
92
85
83
86
88
90
92
91
88
89
86
89
92
97
98
102
103
105
106
105
103
101
96
97
95
95
96
101
103
105
110
113
117
121
126
135
148
134
110
98
86
80
82
81
87
83
84
83
80
76
77
79
83
86
89
95
97
97
102
95
96
93
92
89
89
90
92
98
99
104
108
111
116
117
123
130
144
125
105
93
80
80
76
81
79
77
76
70
68
67
65
69
69
76
79
85
85
86
88
88
83
80
81
78
81
80
85
90
94
102
104
109
112
118
122
127
141
120
99
88
78
76
77
77
75
72
68
62
60
57
53
54
57
62
67
74
73
74
74
73
71
70
72
70
69
73
81
82
91
97
105
110
115
115
120
127
137
113
96
85
78
76
74
73
72
67
62
53
51
46
45
45
47
50
55
56
59
60
63
62
61
56
60
61
63
66
71
78
83
94
100
107
111
118
124
127
138
113
95
85
79
74
74
73
71
65
59
51
47
43
41
39
41
42
46
47
51
52
52
52
53
53
52
54
56
60
67
74
84
94
104
111
116
119
123
130
140
112
99
89
83
80
80
77
72
68
57
53
46
40
39
37
39
39
43
44
46
46
47
47
47
47
48
51
53
58
67
75
88
99
108
114
121
124
131
136
146
118
105
94
92
87
89
88
82
75
64
56
50
43
40
39
40
40
44
40
46
47
49
47
50
48
48
51
57
62
67
80
92
105
115
126
130
137
139
145
155
127
116
108
106
104
99
100
94
88
77
67
60
52
49
45
46
45
49
48
51
51
52
52
53
52
55
56
62
67
76
87
105
119
129
139
146
150
155
158
167
140
127
121
120
118
122
122
119
108
98
84
75
66
62
59
59
59
59
61
61
62
63
63
65
65
66
67
74
81
93
106
121
138
150
158
168
168
171
175
183
158
147
141
138
143
144
147
139
134
122
109
98
93
86
79
79
78
78
79
81
81
82
82
83
81
83
87
92
104
111
127
143
161
170
183
183
188
190
193
199
