P2
40 40
255
0 0 0 0 0 0 0 0 0 0 0 0 0 0 0 0 0 0 0 0 0 0 0 0 0 0 0 0 0 0 0 0 0 0 0 0 0 0 0 0 
0 0 0 0 0 0 0 0 0 0 0 0 0 0 0 0 0 0 0 0 0 0 0 0 0 0 0 0 0 0 0 0 0 0 0 0 0 0 0 0 
0 0 0 0 0 0 0 0 0 0 0 0 0 0 0 0 0 0 0 0 0 0 0 0 0 0 0 0 0 0 0 0 0 0 0 0 0 0 0 0 
0 0 0 0 0 0 0 0 0 0 0 0 0 0 0 0 0 0 0 0 0 0 0 0 0 0 0 0 0 0 0 0 0 0 0 0 0 0 0 0 
0 0 0 0 0 0 0 0 0 0 0 0 0 0 0 0 0 0 0 0 0 0 0 0 0 0 0 0 0 0 0 0 0 0 0 0 0 0 0 0 
0 0 0 0 0 0 0 0 0 0 0 0 0 0 0 0 0 0 0 0 0 0 0 0 0 0 0 0 0 0 0 0 0 0 0 0 0 0 0 0 
0 0 0 0 0 0 0 0 0 0 0 0 0 0 0 0 0 0 0 0 0 0 0 0 0 0 0 0 0 0 0 0 0 0 0 0 0 0 0 0 
0 0 0 0 0 0 0 0 0 0 0 0 0 0 0 0 0 0 0 0 0 0 0 0 0 0 0 0 0 0 0 0 0 0 0 0 0 0 0 0 
0 0 0 0 0 0 0 0 0 0 0 0 0 0 0 0 0 0 0 1 1 2 2 2 1 1 0 0 0 0 0 0 0 0 0 0 0 0 0 0 
0 0 0 0 0 0 0 0 0 0 0 0 0 0 1 2 3 3 5 4 6 6 6 6 6 4 3 2 1 0 0 0 0 0 0 0 0 0 0 0 
0 0 0 0 0 0 0 0 0 0 0 1 2 4 5 7 9 11 12 13 14 14 13 13 12 11 10 7 6 6 5 3 0 0 0 0 0 0 0 0 
0 0 0 0 0 0 0 0 0 2 2 4 7 9 14 17 20 23 24 27 25 26 23 25 24 21 21 19 19 16 12 10 6 4 2 0 0 0 0 0 
0 0 0 0 0 0 0 0 4 6 8 12 17 22 27 32 35 39 37 41 39 41 38 38 36 37 36 34 32 29 25 21 16 11 7 3 1 0 0 0 
0 0 0 0 0 2 4 8 10 12 15 25 30 36 41 48 53 58 59 59 58 58 58 55 54 54 53 51 49 45 40 33 31 23 15 9 5 3 0 0 
0 0 0 3 4 8 11 14 20 24 32 37 46 54 63 69 74 75 79 78 78 76 75 74 71 73 72 72 71 67 64 54 45 33 28 19 12 6 3 1 
0 1 3 8 12 18 24 29 35 38 46 55 64 71 83 88 93 98 99 97 94 93 92 91 92 90 96 94 93 90 84 74 67 55 40 31 21 12 7 3 
1 5 10 16 23 32 40 46 53 59 68 75 82 91 100 107 114 116 117 115 113 109 107 107 106 108 113 114 112 109 103 97 85 73 58 44 32 23 14 8 
4 9 19 29 40 51 61 70 76 79 88 94 101 108 117 124 126 126 128 127 121 122 118 119 119 125 128 129 129 127 123 114 106 92 77 62 44 32 21 12 
10 20 32 49 61 74 84 92 96 100 108 112 117 125 131 134 137 141 138 137 134 129 128 125 128 131 134 140 142 140 135 129 119 105 90 78 62 43 30 20 
19 33 48 64 84 98 108 115 120 119 123 126 132 134 140 144 147 144 144 143 134 134 134 133 136 141 143 147 151 149 147 141 131 119 104 89 72 57 39 28 
28 44 63 84 106 119 128 131 134 134 136 139 142 145 147 149 150 152 149 145 140 139 136 139 141 146 148 153 156 158 151 150 139 128 116 101 85 69 52 36 
39 57 82 103 122 136 143 146 146 147 147 148 148 150 150 157 156 153 149 150 145 139 139 139 146 150 151 159 160 162 157 150 144 132 123 108 94 81 63 48 
47 72 100 121 137 148 155 158 154 156 154 151 152 155 155 157 157 159 154 151 149 145 143 143 148 151 158 161 162 164 159 152 148 138 129 119 103 88 72 57 
57 84 109 132 147 158 163 163 162 156 159 155 155 155 157 159 161 158 158 153 153 147 145 146 150 157 158 160 161 162 160 154 149 140 134 126 110 96 82 66 
66 98 122 141 155 167 169 167 164 159 159 158 154 156 158 158 160 160 158 153 152 146 150 150 155 157 162 161 163 163 161 154 148 141 136 128 117 103 93 75 
79 104 128 148 161 168 170 172 167 162 156 154 156 155 159 158 162 158 156 153 152 151 150 150 151 159 162 159 161 161 154 154 149 141 138 129 123 111 99 83 
86 115 136 152 167 167 168 167 162 161 156 153 158 158 158 158 158 156 155 154 150 149 151 150 152 156 158 159 158 159 156 151 148 142 138 132 129 117 105 90 
97 121 144 156 167 169 169 167 161 157 155 155 155 157 157 158 156 155 153 149 151 149 148 151 150 155 154 156 159 155 155 151 147 144 139 135 130 121 110 96 
106 129 148 163 168 168 169 164 164 161 157 159 157 158 159 155 156 154 153 149 147 146 151 147 151 156 159 159 159 155 150 151 150 145 140 135 131 126 117 104 
115 134 153 163 170 172 169 167 165 163 164 167 166 169 166 163 158 157 153 152 150 149 150 152 154 159 158 160 160 159 154 152 150 145 142 138 134 129 120 107 
121 145 157 169 175 173 174 168 172 171 172 175 179 178 176 172 169 166 160 158 158 153 160 159 162 163 166 166 165 163 157 156 151 147 144 139 138 132 125 111 
130 150 162 175 175 179 174 176 178 179 185 187 188 190 186 186 179 176 170 170 169 167 167 172 175 174 177 174 175 170 165 161 153 151 146 143 137 133 128 114 
135 156 167 177 179 178 178 180 183 187 193 195 198 202 201 198 193 188 181 182 181 181 182 184 185 183 185 186 182 174 173 164 158 150 145 140 140 135 128 118 
142 159 170 177 179 181 182 183 188 193 202 204 209 210 210 208 205 200 199 196 195 192 193 194 199 195 194 192 189 184 177 172 161 155 148 144 137 131 128 117 
142 160 170 176 181 181 182 184 190 196 204 208 212 214 216 214 213 209 208 204 203 203 203 202 202 203 201 199 195 188 181 171 161 151 144 139 136 132 125 115 
143 156 166 172 175 175 178 183 187 198 202 209 215 216 218 216 216 212 211 209 209 208 208 208 208 207 204 202 197 188 180 167 156 147 141 134 131 124 119 109 
137 150 161 163 168 166 167 173 180 191 199 205 212 215 216 215 215 211 215 209 208 206 208 205 207 207 204 198 193 188 175 163 150 140 129 125 118 116 110 100 
128 139 147 149 151 156 155 161 167 178 188 195 203 206 210 209 210 206 207 204 204 203 203 202 203 200 199 193 188 179 168 150 136 126 116 109 105 100 97 88 
115 128 134 135 137 133 133 136 147 157 171 180 189 193 196 196 196 196 194 194 193 192 192 190 190 189 188 181 174 162 149 134 117 105 97 87 87 84 80 72 
97 108 114 117 112 111 108 116 121 133 146 157 162 169 176 176 177 177 176 174 174 173 173 172 174 172 168 163 151 144 128 112 94 85 72 72 67 65 62 56 
